<svg width="12" height="12" viewBox="0 0 12 12" fill="inherit" xmlns="http://www.w3.org/2000/svg">
<path d="M11.667 3.803V1.155C11.667 0.332 11.294 0 10.367 0H8.009C7.081 0 6.708 0.332 6.708 1.155V3.797C6.708 4.626 7.081 4.952 8.008 4.952H10.365C11.293 4.958 11.666 4.626 11.666 3.803H11.667ZM11.667 10.366V8.008C11.667 7.08 11.294 6.707 10.367 6.707H8.009C7.081 6.707 6.708 7.08 6.708 8.007V10.364C6.708 11.292 7.081 11.665 8.008 11.665H10.365C11.293 11.665 11.666 11.292 11.666 10.365L11.667 10.366ZM4.959 3.803V1.155C4.959 0.332 4.586 0 3.659 0H1.301C0.373 0 0 0.332 0 1.155V3.797C0 4.626 0.373 4.952 1.3 4.952H3.657C4.585 4.958 4.959 4.626 4.959 3.803ZM4.959 10.366V8.008C4.959 7.08 4.586 6.707 3.659 6.707H1.301C0.373 6.707 0 7.08 0 8.007V10.364C0 11.292 0.373 11.665 1.3 11.665H3.657C4.585 11.665 4.958 11.292 4.958 10.365L4.959 10.366Z" fill="inherit"/>
</svg>
