<svg width="12" height="20" viewBox="0 0 12 20" fill="inherit" xmlns="http://www.w3.org/2000/svg">
<path d="M10.883 17.7735C11.3922 18.2823 11.3925 19.1088 10.883 19.6181C10.3742 20.1274 9.54799 20.1272 9.0384 19.6181C9.0354 19.6151 9.03315 19.6121 9.03045 19.6089L9.02671 19.6122L0.387177 10.9727L0.390773 10.9694C0.266855 10.8483 0.168439 10.7036 0.101325 10.5438C0.0342123 10.3841 -0.000239639 10.2125 1.25459e-06 10.0392C-0.000242883 9.84492 0.0430963 9.65303 0.126828 9.47768C0.210559 9.30234 0.33255 9.148 0.483821 9.02604L0.474831 9.01735L9.11436 0.377821L9.11811 0.381418C9.12081 0.378271 9.12305 0.375574 9.12605 0.372727C9.37151 0.132211 9.70197 -0.00172571 10.0456 1.67917e-05C10.3893 0.0017593 10.7184 0.139041 10.9614 0.382033C11.2044 0.625026 11.3417 0.954098 11.3435 1.29775C11.3452 1.6414 11.2113 1.97187 10.9708 2.21736C10.9677 2.22035 10.9647 2.22245 10.9617 2.22545L10.9651 2.22904L3.15584 10.0392L10.8784 17.7618L10.8746 17.7649C10.8769 17.7682 10.88 17.7703 10.883 17.7735Z" fill="inherit"/>
</svg>
