<svg width="16" height="16" viewBox="0 0 16 16" fill="inherit" xmlns="http://www.w3.org/2000/svg">
<path d="M15.2652 12.9077L10.4996 8.14213L15.2652 3.37653C15.8876 2.75413 15.8655 1.72293 15.2136 1.07107C14.5618 0.419204 13.5306 0.397106 12.9082 1.01951L8.14258 5.78511L3.37697 1.01951C2.75457 0.397106 1.72337 0.419204 1.07151 1.07107C0.419646 1.72293 0.39755 2.75413 1.01995 3.37653L5.78556 8.14213L1.01995 12.9077C0.39755 13.5301 0.419646 14.5613 1.07151 15.2132C1.72337 15.8651 2.75457 15.8872 3.37697 15.2648L8.14258 10.4992L12.9082 15.2648C13.5306 15.8872 14.5618 15.8651 15.2136 15.2132C15.8655 14.5613 15.8876 13.5301 15.2652 12.9077Z" fill="inherit"/>
</svg>
