<svg width="20" height="25" viewBox="0 0 20 25" fill="inherit" xmlns="http://www.w3.org/2000/svg">
<path d="M9.912 24.381C12.27 20.801 11.92 15.911 8.733 12.723C6.768 10.759 5.72 8.226 5.72 5.432C5.72 3.772 6.157 2.113 6.9 0.671997C2.97 1.982 0 6.698 0 12.374C0 19.011 4.105 24.424 9.082 24.424C9.344 24.425 9.606 24.425 9.912 24.381Z" fill="inherit"/>
<path d="M9.96432 0C9.70232 0 8.77032 0.15 8.46432 0.194C6.10632 3.774 7.12632 8.514 10.3143 11.702C12.2793 13.667 13.3263 16.199 13.3263 18.994C13.3263 20.653 12.4253 21.894 11.6833 23.334C15.6133 22.024 19.0463 17.727 19.0463 12.051C19.0463 5.415 14.9863 -0.044 9.96432 0Z" fill="inherit"/>
</svg>
