<svg width="40" height="30" viewBox="0 0 40 30" fill="inherit" xmlns="http://www.w3.org/2000/svg">
<path d="M31.1655 4.40013C30.9386 4.26913 30.0565 3.93303 29.7695 3.81814C25.9374 5.73951 24.4508 10.3545 25.6176 14.7094C26.3369 17.3936 25.9776 20.1099 24.5801 22.5304C23.7506 23.9672 22.3498 24.5914 20.9872 25.4675C25.0457 26.298 30.1673 24.2932 33.0053 19.3776C36.3233 13.6307 35.5367 6.87303 31.1655 4.40013Z" fill="inherit"/>
<path d="M18.9297 25.4886C22.7618 23.5672 24.9037 19.1574 23.7377 14.803C23.018 12.1196 23.3769 9.40196 24.7739 6.98228C25.6039 5.54468 26.8118 4.32644 28.1758 3.45C24.1173 2.61949 19.1872 5.21867 16.3492 10.1342C13.0307 15.882 13.8792 22.6223 18.1894 25.1108C18.4158 25.2427 18.6427 25.3737 18.9297 25.4886Z" fill="inherit"/>
<path d="M5.66942 10.6689C5.83298 10.5602 6.47088 10.2698 6.67836 10.1711C9.48841 11.4911 10.6231 14.9575 9.82437 18.327C9.33203 20.4039 9.62469 22.464 10.6693 24.2584C11.2893 25.3235 12.3156 25.7464 13.317 26.363C10.3739 27.1527 6.62481 25.8183 4.50349 22.1742C2.02338 17.9138 2.51778 12.7244 5.66942 10.6689Z" fill="inherit"/>
<path fill-rule="evenodd" clip-rule="evenodd" d="M16.1267 25.3521C15.8886 25.5861 15.6293 25.7976 15.3491 25.9839C15.1859 26.0932 15.0223 26.2019 14.8148 26.3006C12.0048 24.9806 10.3957 21.6959 11.1939 18.3268C11.6866 16.2505 11.3942 14.1895 10.3499 12.3957C9.72954 11.3299 8.8367 10.4461 7.8343 9.82926C9.80978 9.29924 12.0888 9.93393 14.0153 11.5106C12.0173 16.9135 12.8888 22.5934 16.1267 25.3521Z" fill="inherit"/>
</svg>
