<svg width="17" height="17" viewBox="0 0 17 17" fill="inherit" xmlns="http://www.w3.org/2000/svg">
<path d="M7.82802 15.8335C8.87512 15.8453 9.91415 15.6492 10.8849 15.2566C11.8557 14.8641 12.739 14.2828 13.4836 13.5465C14.2282 12.8103 14.8194 11.9336 15.2228 10.9672C15.6263 10.0009 15.834 8.96416 15.834 7.917C15.834 6.86984 15.6263 5.83308 15.2228 4.86676C14.8194 3.90043 14.2282 3.02375 13.4836 2.28747C12.739 1.55118 11.8557 0.969931 10.8849 0.577368C9.91415 0.184805 8.87512 -0.0112686 7.82802 0.00050004C5.74385 0.0239248 3.75299 0.868296 2.28747 2.35038C0.821943 3.83247 0 5.83269 0 7.917C0 10.0013 0.821943 12.0015 2.28747 13.4836C3.75299 14.9657 5.74385 15.8101 7.82802 15.8335ZM15.994 16.6665C15.8415 16.667 15.6949 16.6073 15.586 16.5005L14.036 14.9505C13.928 14.8404 13.8675 14.6923 13.8675 14.538C13.8675 14.3837 13.928 14.2356 14.036 14.1255C14.1461 14.0175 14.2943 13.9569 14.4485 13.9569C14.6028 13.9569 14.7509 14.0175 14.861 14.1255L16.411 15.6755C16.5191 15.7856 16.5796 15.9337 16.5796 16.088C16.5796 16.2423 16.5191 16.3904 16.411 16.5005C16.2978 16.6063 16.149 16.6656 15.994 16.6665Z" fill="inherit"/>
</svg>
