<svg width="20" height="16" viewBox="0 0 20 16" fill="inherit" xmlns="http://www.w3.org/2000/svg">
<path d="M12.5924 10.7595C12.5924 11.0103 12.3831 11.217 12.1292 11.217H7.87082C7.61693 11.217 7.40757 11.0103 7.40757 10.7595V8.82405V6.65982V4.72434C7.40757 4.47361 7.61693 4.26686 7.87082 4.26686H12.1292C12.3831 4.26686 12.5924 4.46921 12.5924 4.72434V6.65982V8.82405V10.7595ZM6.44098 4.71994V6.65542C6.44098 6.98094 6.22717 7.25806 5.97773 7.25806H0V3.10997C0 3.08358 0.00445462 3.06158 0.00445462 3.03519H5.97773C6.22717 3.03519 6.44098 3.31232 6.44098 3.63783V4.71994ZM0 12.3695V8.22141H5.97773C6.22717 8.22141 6.44098 8.49853 6.44098 8.82405V10.7595V11.8416C6.44098 12.1672 6.22717 12.4443 5.97773 12.4443H0.00445462C0.00445462 12.4179 0 12.3959 0 12.3695ZM20 3.10997V7.25806H14.0223C13.7728 7.25806 13.559 6.98094 13.559 6.65542V4.71994V3.63783C13.559 3.31232 13.7728 3.03519 14.0223 3.03519H19.9955C19.9955 3.06158 20 3.08798 20 3.10997ZM13.5635 10.7595V8.82405C13.5635 8.49853 13.7773 8.22141 14.0267 8.22141H20V12.3695C20 12.3959 19.9955 12.4179 19.9955 12.4443H14.0223C13.7728 12.4443 13.559 12.1672 13.559 11.8416V10.7595H13.5635ZM3.15368 0H16.8463C18.2183 0 19.3853 0.870967 19.8174 2.08064H14.0223C13.3096 2.08064 12.7216 2.65249 12.6102 3.39589C12.4588 3.34311 12.2984 3.30792 12.1247 3.30792H7.86637C7.6971 3.30792 7.53229 3.34311 7.38085 3.39589C7.2784 2.65249 6.69042 2.08064 5.97773 2.08064H0.182628C0.6147 0.870967 1.78174 0 3.15368 0ZM16.8463 15.4839H3.15368C1.78174 15.4839 0.6147 14.6129 0.182628 13.4032H5.97773C6.69042 13.4032 7.2784 12.8314 7.38976 12.088C7.5412 12.1408 7.70156 12.176 7.87528 12.176H12.1336C12.3029 12.176 12.4677 12.1408 12.6192 12.088C12.7261 12.8314 13.314 13.4032 14.0312 13.4032H19.8263C19.3853 14.6129 18.2183 15.4839 16.8463 15.4839Z" fill="inherit"/>
</svg>
