<svg width="20" height="7" viewBox="0 0 20 7" fill="inherit" xmlns="http://www.w3.org/2000/svg">
<path d="M10.3435 2.06474C10.3321 2.96439 11.1453 3.46646 11.7579 3.76494C12.3872 4.07123 12.5986 4.26761 12.5962 4.54147C12.5914 4.96066 12.0942 5.14564 11.6287 5.15284C10.8168 5.16545 10.3447 4.93364 9.96937 4.75827L9.6769 6.12696C10.0535 6.30052 10.7507 6.45186 11.4738 6.45847C13.171 6.45847 14.2814 5.62068 14.2874 4.32166C14.294 2.67311 12.0071 2.58183 12.0227 1.84493C12.0281 1.62152 12.2413 1.3831 12.7085 1.32244C12.9398 1.29181 13.5782 1.26839 14.3018 1.6017L14.5859 0.277459C14.1967 0.135726 13.6965 -1.43051e-06 13.0737 -1.43051e-06C11.4762 -1.43051e-06 10.3525 0.849196 10.3435 2.06474ZM17.3155 0.114106C17.0056 0.114106 16.7443 0.294876 16.6278 0.572337L14.2034 6.36118H15.8993L16.2369 5.4285H18.3094L18.5052 6.36118H20L18.6956 0.114106H17.3155ZM17.5527 1.80169L18.0422 4.1475H16.7017L17.5527 1.80169ZM8.28719 0.114106L6.95033 6.36118H8.56645L9.90271 0.114106H8.28719ZM5.89634 0.114106L4.21416 4.3661L3.53372 0.750704C3.45385 0.347125 3.13855 0.114106 2.78842 0.114106H0.0384361L0 0.295476C0.564531 0.417991 1.20593 0.615577 1.5945 0.826976C1.83232 0.956098 1.90019 1.069 1.97826 1.37589L3.26707 6.36118H4.97508L7.59354 0.114106H5.89634Z" fill="inherit"/>
</svg>
