<svg viewBox="0 0 412 412" fill="none" xmlns="http://www.w3.org/2000/svg">
<rect width="412" height="412" fill="#0C0F14"/>
<path d="M202.775 102.058C202.775 107.904 200.879 114.856 195.349 128.445C191.399 138.715 187.449 150.091 186.817 154.041C184.289 167.63 189.819 182.482 201.669 194.174L208.937 201.284L206.409 194.332C202.301 182.482 203.249 166.998 209.569 147.879C212.571 138.557 215.099 127.971 215.099 124.179C215.099 115.646 211.465 104.744 206.409 98.7401L202.617 94L202.775 102.058Z" fill="#D17842"/>
<path d="M171.806 144.087C163.116 155.305 160.43 170.474 165.17 179.796C167.698 184.536 177.968 194.332 183.499 197.334C186.659 199.072 186.659 198.598 182.393 192.278C179.865 188.644 176.388 182.324 174.808 178.374C171.332 169.368 171.174 152.777 174.492 144.719C177.652 137.451 176.862 137.293 171.806 144.087Z" fill="#D17842"/>
<path d="M330.508 186.088C329.11 186.673 323.282 187.96 317.687 188.895C312.093 189.831 305.216 191.352 302.302 192.171C297.873 193.574 297.058 194.276 296.358 197.551C295.892 199.657 295.892 201.295 296.242 201.295C296.475 201.295 300.321 200.008 304.633 198.487C308.946 196.85 315.823 194.978 319.902 194.276C323.981 193.574 328.527 192.639 330.042 192.288C331.557 191.937 332.606 192.171 332.606 192.989C332.606 193.808 329.459 199.657 325.73 206.09C322 212.524 317.221 221.882 315.123 227.029C308.713 242.82 301.02 246.914 289.598 240.48C286.917 238.843 284.353 237.556 284.12 237.556C283.071 237.556 280.157 244.808 280.857 245.861C282.255 248.201 289.365 250.423 294.96 250.423C306.149 250.306 315.939 242.703 318.62 231.941C320.252 225.508 322.699 220.595 332.257 204.57C336.336 197.551 339.833 190.533 339.949 188.778C340.182 185.971 339.716 185.503 336.686 185.269C334.821 185.152 332.023 185.503 330.508 186.088Z" fill="white"/>
<path d="M72.106 191.172C77.6361 238.731 109.553 276.178 155.058 288.344C168.962 292.136 196.455 292.136 210.359 288.344C255.706 276.02 287.623 238.731 293.153 191.804L293.943 183.904L290.151 191.804C280.354 211.871 263.922 222.615 241.328 223.879C224.579 224.827 216.205 222.457 186.5 208.394C148.896 190.54 125.037 184.062 89.3284 182.008L71 181.06L72.106 191.172Z" fill="white"/>
<path d="M79.3737 291.188C80.6377 292.294 108.92 299.878 121.087 302.248C163.589 310.464 218.575 309.2 258.549 299.088C274.982 294.822 284.936 291.82 284.146 291.188C283.83 290.872 271.506 291.978 256.811 293.558C204.354 299.562 149.843 299.246 100.704 292.768C82.8498 290.556 78.2677 290.082 79.3737 291.188Z" fill="white"/>
<path d="M126.3 311.097C136.413 315.363 161.693 318.997 182.708 318.997C203.88 318.997 232.321 314.889 238.641 310.939C240.537 309.833 240.221 309.675 237.219 310.307C212.254 315.363 162.799 315.363 128.197 310.307C123.456 309.517 123.14 309.675 126.3 311.097Z" fill="white"/>
</svg>
